<svg width="48" height="44" viewBox="0 0 48 44" fill="none" xmlns="http://www.w3.org/2000/svg">
<g id="Layer_1" clip-path="url(#clip0_734_678)">
<path id="Vector" d="M0 18.8378C0.142546 18.7549 0.120999 18.5925 0.167409 18.4698C0.628198 17.22 1.73376 16.4244 3.06972 16.4145C4.42888 16.4045 5.78804 16.4062 7.14721 16.4178C7.4323 16.4211 7.63618 16.3482 7.84005 16.1344C11.707 12.095 15.5823 8.06226 19.4625 4.03284C19.6482 3.84057 19.7244 3.62509 19.7808 3.37812C20.2532 1.32943 22.0052 -0.0380169 24.097 0.000105924C26.1241 0.0382288 27.8347 1.50845 28.2126 3.55382C28.2507 3.75935 28.3551 3.8903 28.4861 4.02455C32.3613 8.05729 36.2383 12.0884 40.1069 16.1277C40.3091 16.3399 40.5113 16.4178 40.7998 16.4161C42.1125 16.4012 43.4253 16.4095 44.7364 16.4095C46.7071 16.4112 48 17.6974 48 19.6566C48 26.5618 48 33.4687 48 40.3739C48 42.4043 46.7303 43.6756 44.6966 43.6756C32.9 43.6756 21.1051 43.6756 9.30861 43.6756C7.32456 43.6756 5.34052 43.6756 3.35647 43.6756C1.59453 43.6756 0.555268 42.8983 0.0580131 41.2175C0.0497255 41.191 0.0198902 41.1711 0 41.1479C0 33.7107 0 26.2734 0 18.8345L0 18.8378Z" fill="#7785DB"/>
<path id="Vector_2" d="M2.81282 41.1528C2.48629 41.1114 2.4349 40.8876 2.43656 40.6125C2.44153 39.7688 2.43822 38.9251 2.43822 38.0814C2.43822 31.9403 2.43822 25.8009 2.43822 19.6598C2.43822 19.0167 2.58574 18.8642 3.22554 18.8443C3.33493 18.841 3.44433 18.8443 3.55373 18.8443C17.1619 18.8443 30.7701 18.8443 44.38 18.8443C44.4894 18.8443 44.5988 18.841 44.7082 18.8443C45.3198 18.8675 45.4706 19.0266 45.4706 19.6399C45.4706 26.4059 45.4706 33.1702 45.4706 39.9362C45.4706 40.155 45.4624 40.3754 45.4939 40.5893C45.5419 40.9108 45.4309 41.0998 45.1077 41.1561C44.9436 41.2307 44.7679 41.1943 44.5988 41.1943C30.8398 41.1959 17.0791 41.1959 3.32002 41.1943C3.15095 41.1943 2.97691 41.2357 2.81282 41.1528Z" fill="#F6F9FF"/>
<path id="Vector_3" d="M36.893 16.3962H11.1087C11.1004 16.2321 11.2297 16.174 11.3076 16.0928C14.2032 13.0679 17.1055 10.0512 19.9929 7.01959C20.2714 6.72787 20.3742 6.73781 20.6311 7.05108C22.3549 9.15778 25.6169 9.11635 27.3357 6.97484C27.5098 6.75936 27.586 6.68643 27.8131 6.92345C30.7983 10.0346 33.7951 13.1358 36.7885 16.2387C36.8184 16.2685 36.8366 16.31 36.893 16.3962Z" fill="#FEFEFE"/>
<path id="Vector_4" d="M22.1245 4.28469C22.1245 3.24874 22.9516 2.42827 23.9925 2.43159C24.9771 2.4349 25.8324 3.28521 25.849 4.27475C25.8639 5.21787 24.9638 6.13448 24.0041 6.15271C23.0129 6.1726 22.1245 5.28749 22.1245 4.28469Z" fill="#FEE649"/>
<path id="Vector_5" d="M2.81274 41.1528C16.9099 41.1528 31.0087 41.1544 45.1076 41.1561C44.965 41.3003 44.7827 41.2423 44.6186 41.2423C30.8463 41.2456 17.0724 41.2456 3.30005 41.2423C3.13596 41.2423 2.95363 41.3036 2.81274 41.1528Z" fill="#D37C79"/>
<path id="Vector_6" d="M28.4281 29.9463C28.5275 32.1293 26.9297 34.3503 24.8644 34.836C21.7268 35.5752 18.4532 33.1934 19.0035 29.4424C19.335 27.1783 20.8234 25.5672 22.8937 25.2025C25.7694 24.6953 28.3635 26.8169 28.4281 29.7292C28.4298 29.8237 28.4281 29.9165 28.4281 29.9463Z" fill="#7785DB"/>
<path id="Vector_7" d="M37.1433 29.5403C37.1433 28.3336 37.1383 27.4286 37.1433 26.5219C37.1499 25.6832 37.5378 25.292 38.3815 25.2854C39.6942 25.2771 41.007 25.3169 42.3164 25.2705C43.1899 25.2407 43.6739 26.0727 43.2827 26.9181C43.1385 27.228 42.8783 27.3706 42.5269 27.3706C41.6683 27.3706 40.8097 27.3921 39.9495 27.3838C39.6578 27.3805 39.5086 27.4468 39.5467 27.7717C39.5964 28.2159 39.3578 28.7828 39.6478 29.0745C39.8948 29.3231 40.4501 29.1325 40.8694 29.1441C41.2291 29.1541 41.5888 29.1308 41.9468 29.1507C42.6479 29.1905 42.9347 29.4905 42.9264 30.137C42.9181 30.785 42.5733 31.1596 41.9252 31.1878C41.4578 31.2077 40.9887 31.1945 40.5197 31.1945C39.4506 31.1945 39.4754 31.1945 39.4406 32.2652C39.4257 32.7277 39.5616 32.847 40.0108 32.8271C40.8363 32.789 41.6667 32.8105 42.4938 32.8188C43.2794 32.8254 43.6076 33.1453 43.6026 33.878C43.5977 34.5692 43.2032 34.9554 42.4755 34.9587C41.1794 34.9636 39.8832 34.9653 38.587 34.9587C37.5328 34.952 37.2229 34.6272 37.208 33.5929C37.1881 32.1409 37.0936 30.6906 37.14 29.5386L37.1433 29.5403Z" fill="#7785DB"/>
<path id="Vector_8" d="M32.9729 25.118C33.6542 25.1577 34.4481 25.3036 35.1824 25.6815C35.7526 25.9749 35.9515 26.5219 35.7161 27.097C35.4708 27.7004 34.9935 27.9324 34.3586 27.7435C33.9708 27.6291 33.5912 27.4816 33.2033 27.3672C32.6912 27.2164 32.2088 27.2877 31.7978 27.6424C31.4464 27.944 31.516 28.3783 31.9287 28.5921C32.295 28.7827 32.6961 28.8474 33.0906 28.9302C33.5365 29.0247 33.9608 29.1722 34.3785 29.3446C35.2819 29.7192 35.973 30.2911 36.0808 31.3303C36.2034 32.5171 35.9366 33.5812 34.889 34.2956C33.6674 35.1294 32.3182 35.1459 30.9375 34.8144C30.5762 34.7282 30.2182 34.6056 29.875 34.4581C29.2071 34.173 28.9236 33.4536 29.1839 32.7807C29.3927 32.242 29.9065 31.9784 30.4668 32.1375C31.0784 32.3116 31.6502 32.6215 32.3033 32.6663C32.5238 32.6812 32.7376 32.6945 32.9497 32.6298C33.3658 32.5022 33.7122 32.2867 33.7221 31.8077C33.7337 31.337 33.3094 31.2441 32.9829 31.1497C32.2221 30.9292 31.4281 30.8264 30.6939 30.4999C30.0574 30.2165 29.5054 29.8502 29.3214 29.1325C29.0662 28.1396 29.1822 27.2031 29.89 26.4158C30.6723 25.5473 31.6585 25.108 32.9713 25.118H32.9729Z" fill="#7785DB"/>
<path id="Vector_9" d="M9.20418 25.1893C9.9799 25.1826 10.7291 25.302 11.4203 25.6716C11.9043 25.9302 12.1463 26.3993 12.0717 26.9098C12.0037 27.3855 11.7054 27.6954 11.2263 27.7866C10.9711 27.8347 10.7357 27.7551 10.5004 27.6722C10.1324 27.5446 9.77105 27.3938 9.37656 27.3689C7.99585 27.2827 7.09416 28.0518 6.78089 29.5767C6.46762 31.0933 7.3113 32.479 8.73676 32.7476C9.39479 32.8719 9.98984 32.6116 10.5749 32.3431C11.3589 31.9834 12.0518 32.3033 12.201 33.0675C12.3137 33.6476 12.0551 34.0305 11.586 34.3089C8.82295 35.9515 5.25763 34.6089 4.56148 31.5691C3.92333 28.7911 5.43333 26.0959 8.14005 25.2937C8.4931 25.1893 8.84781 25.2009 9.20584 25.1876L9.20418 25.1893Z" fill="#7785DB"/>
<path id="Vector_10" d="M15.405 29.28C15.405 30.2778 15.4166 31.2773 15.3984 32.2751C15.3934 32.6033 15.4995 32.716 15.8277 32.6995C16.6067 32.6613 17.3857 32.6398 18.1648 32.6299C18.8709 32.6199 19.2222 32.9614 19.2339 33.6327C19.2471 34.4664 18.9222 34.8609 18.1846 34.8658C16.9365 34.8741 15.6884 34.8791 14.4403 34.8658C13.5867 34.8576 13.1276 34.4216 13.1309 33.5663C13.1392 31.1033 13.1673 28.6386 13.2055 26.1755C13.2154 25.5274 13.6049 25.2092 14.2795 25.2174C14.9989 25.2274 15.3834 25.544 15.395 26.1904C15.4116 27.2197 15.4 28.249 15.4 29.28C15.4017 29.28 15.4033 29.28 15.405 29.28Z" fill="#7785DB"/>
<path id="Vector_11" d="M21.3787 30.2C21.3903 29.6695 21.4516 29.2369 21.6273 28.8325C21.9638 28.0551 22.524 27.4932 23.3793 27.3838C24.3489 27.2612 25.0849 27.6954 25.6186 28.5159C26.3728 29.6745 26.1424 31.4099 25.0899 32.3067C23.8417 33.3708 21.8594 32.673 21.4881 31.0337C21.4201 30.732 21.3522 30.4237 21.3787 30.1983V30.2Z" fill="#F6F9FF"/>
</g>
<defs>
<clipPath id="clip0_734_678">
<rect width="48" height="43.6789" fill="white"/>
</clipPath>
</defs>
</svg>
