<svg width="48" height="46" viewBox="0 0 48 46" fill="none" xmlns="http://www.w3.org/2000/svg">
<g id="Layer_1" clip-path="url(#clip0_643_839)">
<path id="Vector" d="M48 24.8013C47.8847 24.869 47.9185 24.9955 47.8847 25.0945C47.5238 26.1684 46.579 26.8627 45.4424 26.8702C44.3798 26.8777 43.3171 26.884 42.2558 26.8639C41.9625 26.8589 41.8798 26.9378 41.8961 27.2273C41.9212 27.6797 41.8911 28.1358 41.9049 28.5894C41.9249 29.236 41.7382 29.7924 41.2433 30.2235C41.1292 30.3237 41.0616 30.3926 41.1455 30.5668C42.128 32.6181 42.2382 34.781 41.8961 36.984C41.8184 37.4889 41.9876 37.9388 42.0315 38.4137C42.0615 38.7408 42.1067 39.0679 42.1092 39.3949C42.1117 39.9751 41.7984 40.351 41.2232 40.3009C40.6004 40.247 40.4438 40.5114 40.2934 41.059C39.5466 43.7783 37.0742 45.5614 34.2785 45.4624C31.6157 45.3684 29.2812 43.3748 28.6972 40.6731C28.6396 40.4049 28.5481 40.3184 28.2737 40.3197C23.6021 40.3272 18.9306 40.3272 14.259 40.3197C13.9796 40.3197 13.8956 40.4037 13.8568 40.6806C13.7352 41.5653 13.4006 41.7996 12.5435 41.5565C12.0949 41.4287 11.9019 41.5014 11.6851 41.9525C10.6062 44.2031 8.05741 45.3797 5.64895 44.797C3.21418 44.2081 1.47362 41.9913 1.51874 39.4914C1.52625 39.1167 1.42601 38.9563 1.07138 38.915C0.90221 38.8962 0.734295 38.8498 0.570139 38.8022C0.105238 38.6656 -0.0789674 38.3423 0.0313055 37.8724C0.738054 34.8549 3.46731 32.5943 6.56121 32.4916C6.9008 32.4803 7.04115 32.3725 7.12761 32.0505C7.38826 31.0706 7.68399 30.0994 7.96468 29.1258C8.16142 28.4416 8.47469 28.1684 8.92706 28.2937C9.39196 28.4215 9.51978 28.815 9.3243 29.4967C9.01729 30.5606 8.72155 31.6294 8.39826 32.6883C8.32432 32.9314 8.35189 33.0868 8.51981 33.2735C10.1401 35.0755 11.7541 36.885 13.363 38.6969C13.4984 38.8498 13.6325 38.9313 13.8417 38.92C14.1525 38.9049 14.4633 38.9162 14.8304 38.9162C13.6262 36.0755 12.6751 33.2146 12.457 30.1533C12.239 27.0794 12.759 24.1121 13.7152 21.126C13.0773 21.126 12.4796 21.126 11.8831 21.126C11.6287 21.126 11.6601 21.3478 11.6175 21.4956C11.2102 22.8878 10.808 24.2825 10.4045 25.676C10.3957 25.706 10.3932 25.7374 10.3844 25.7674C10.2215 26.3088 9.90448 26.5456 9.4872 26.4379C9.03358 26.3201 8.86065 25.9454 9.01979 25.3878C9.30675 24.3828 9.60499 23.3803 9.89696 22.3766C10.0135 21.9756 10.1225 21.5708 10.2466 21.1247C9.98468 21.1247 9.76915 21.1297 9.55236 21.1247C8.9822 21.1109 8.71905 20.8565 8.71654 20.2901C8.71028 19.101 8.70652 17.9105 8.71905 16.7213C8.72907 15.7865 9.31177 15.3241 10.2002 15.5985C11.7177 16.0672 13.2252 16.5684 14.7252 17.091C15.274 17.2827 15.8128 17.319 16.378 17.2664C17.4043 17.1699 18.4318 17.0847 19.4594 17.0108C19.6586 16.9957 19.8228 16.9494 19.9581 16.8053C19.9681 16.794 19.9807 16.784 19.9932 16.7739C20.4857 16.3416 21.131 15.9933 21.4292 15.4532C21.7287 14.9118 21.5069 14.1637 21.6423 13.5171C21.715 13.1663 21.9217 12.7302 21.7889 12.4833C21.6611 12.2477 21.1661 12.2214 20.844 12.0786C18.9168 11.224 17.7414 9.22652 17.9682 7.16267C18.0008 6.86694 17.9519 6.78924 17.6474 6.78674C17.0334 6.78173 16.8078 6.51983 16.8216 5.91082C16.8943 2.5876 19.6448 -0.0614543 22.9568 -5.24181e-05C25.78 0.0525778 28.3413 2.36455 28.6797 5.18277C28.9153 7.14888 28.5005 8.94082 27.2161 10.4896C27.1258 10.5987 26.9604 10.6851 27.181 10.8568C29.3752 12.556 30.4841 14.9194 31.1746 17.5195C31.7686 19.7576 31.959 22.0445 31.8851 24.3552C31.8738 24.7123 31.8012 25.067 31.7523 25.4617C32.6746 25.4617 33.5943 25.4504 34.5129 25.4667C34.8775 25.473 34.766 25.2274 34.7672 25.0532C34.7723 22.2512 34.7685 19.4493 34.7723 16.6461C34.7723 16.2865 34.7535 15.9193 34.8211 15.571C35.0592 14.3617 36.0868 13.5322 37.3298 13.5284C40.0177 13.5222 42.7044 13.5234 45.3923 13.5284C46.6078 13.5297 47.5464 14.2339 47.9035 15.3943C47.926 15.467 47.9173 15.5522 48 15.5935V24.8001V24.8013Z" fill="#7785DB"/>
<path id="Vector_2" d="M15.6136 37.1205C17.9557 37.1205 20.205 37.1205 22.4543 37.1205C22.6723 37.1205 22.8916 37.1218 23.1097 37.1105C23.9229 37.0654 24.3252 36.6631 24.3452 35.8273C24.3665 34.9665 24.3515 34.1056 24.3515 33.2447C24.3515 32.5555 24.3753 31.8663 24.3427 31.1796C24.3239 30.7824 24.4104 30.6483 24.844 30.6558C26.468 30.6859 28.0932 30.6658 29.7173 30.6696C30.127 30.6696 30.4704 30.5706 30.5681 30.1119C30.6759 29.6094 30.3413 29.2648 29.7323 29.2611C28.3263 29.2536 26.9203 29.2586 25.5144 29.2586C25.2174 29.2586 24.9204 29.2486 24.6247 29.2623C24.4204 29.2724 24.3653 29.2047 24.3615 28.9967C24.349 28.2975 24.4542 28.1834 25.1397 28.1696C26.4178 28.1446 27.7023 28.2711 28.9692 28.0042C29.6709 27.8564 30.305 27.5707 30.8125 27.0556C30.9616 26.904 31.1132 26.8689 31.3087 26.8689C34.246 26.8727 37.182 26.8764 40.1192 26.8639C40.4275 26.8627 40.5202 26.9441 40.5027 27.2511C40.4764 27.6872 40.4977 28.127 40.4952 28.5656C40.4927 29.1483 40.3912 29.2561 39.8135 29.2561C37.6895 29.2598 35.5642 29.2561 33.4402 29.2573C32.6833 29.2573 32.34 29.4816 32.3463 29.9716C32.3513 30.4578 32.6846 30.6671 33.4553 30.6671C35.3926 30.6671 37.3298 30.6696 39.2659 30.6646C39.499 30.6646 39.6568 30.6934 39.7809 30.9427C40.4012 32.1821 40.6543 33.4953 40.6643 34.88C40.4676 34.875 40.4313 34.7108 40.3461 34.6156C38.1707 32.157 35.459 31.256 32.3262 32.1708C29.2336 33.073 27.4366 35.2697 26.8978 38.4613C26.8351 38.831 26.7211 38.9262 26.3452 38.9237C23.1585 38.9049 19.9719 38.9062 16.7853 38.9212C16.4494 38.9225 16.289 38.8235 16.1813 38.5077C16.0271 38.0553 15.8204 37.6205 15.6124 37.1218L15.6136 37.1205Z" fill="white"/>
<path id="Vector_3" d="M18.4582 21.126C19.3479 21.126 20.2388 21.1223 21.1285 21.1285C21.413 21.1298 21.6924 21.1285 21.9305 20.9431C22.1322 20.7852 22.1774 20.8942 22.2225 21.0884C22.3327 21.5584 22.4643 22.0245 22.5909 22.4907C22.6347 22.6498 22.6673 22.7563 22.443 22.8403C20.1874 23.6799 19.2902 25.4906 19.0333 27.7274C18.8629 29.2073 18.9657 30.6972 18.9569 32.1834C18.9544 32.5318 18.9043 32.7084 18.512 32.8375C17.4068 33.2009 16.7928 34.0455 16.6023 35.1733C16.5334 35.5818 16.4306 35.7472 15.977 35.7247C15.0723 35.6795 15.0848 35.7071 14.8029 34.8337C13.3555 30.3338 13.6049 25.8753 15.0911 21.4393C15.1775 21.1824 15.2953 21.116 15.5535 21.121C16.5209 21.1373 17.4895 21.1273 18.4582 21.1273V21.126Z" fill="white"/>
<path id="Vector_4" d="M34.4001 38.9175C32.5267 38.9175 30.6533 38.9175 28.7799 38.9175C28.4057 38.9175 28.2524 38.7337 28.32 38.3662C28.8238 35.6494 31.2022 33.4941 33.9477 33.2673C36.7396 33.0355 39.3624 34.7246 40.3185 37.3674C40.4563 37.7496 40.5353 38.1469 40.6318 38.5403C40.717 38.8837 40.6004 38.925 40.3009 38.9238C38.3336 38.9138 36.3675 38.9188 34.4001 38.9188V38.9175Z" fill="white"/>
<path id="Vector_5" d="M22.9806 14.2101C22.9869 14.0923 22.9944 13.9996 22.9944 13.9081C22.9994 12.9282 23.3352 12.259 24.4517 12.2064C24.7625 12.1926 25.0958 12.0447 25.364 11.8718C25.7525 11.6224 26.0206 11.729 26.3464 11.9858C27.7825 13.1136 28.681 14.6111 29.3188 16.2827C30.0443 18.1824 30.3363 20.1723 30.4666 22.1923C30.4854 22.4881 30.419 22.5883 30.0982 22.5858C28.2085 22.5695 26.3189 22.5733 24.4292 22.5833C24.166 22.5846 24.0395 22.5169 23.9781 22.2462C23.8302 21.5921 23.6598 20.943 23.4731 20.2989C23.4041 20.0583 23.4618 19.9343 23.666 19.8064C24.2989 19.4067 24.9279 19.0007 25.5419 18.5734C26.1472 18.1523 26.6071 17.6022 26.795 16.8742C27.0369 15.9419 26.77 15.1299 26.0745 14.4908C25.3515 13.8266 24.4981 13.6412 23.5558 13.9733C23.3678 14.0397 23.1849 14.1236 22.9756 14.2088L22.9806 14.2101Z" fill="white"/>
<path id="Vector_6" d="M26.993 23.9869C28.008 23.9869 29.023 23.9994 30.0368 23.9793C30.3877 23.9718 30.5243 24.032 30.4867 24.4355C30.3563 25.8039 29.6772 26.5244 28.31 26.6911C27.2198 26.8239 26.1271 26.7437 25.0357 26.76C23.6635 26.78 23.0044 27.4066 22.9693 28.7963C22.9418 29.9215 22.9405 31.0481 22.9543 32.1734C22.958 32.5054 22.9017 32.6458 22.5282 32.6245C21.9054 32.5894 21.2801 32.6145 20.6561 32.6157C20.4944 32.6157 20.3453 32.6333 20.3528 32.3851C20.408 30.6684 20.2025 28.9404 20.5345 27.2374C20.8265 25.7362 21.5558 24.5633 23.1184 24.0934C23.6222 23.9418 24.1385 23.9894 24.6522 23.9856C25.4329 23.9806 26.2136 23.9856 26.993 23.9856V23.9869Z" fill="white"/>
<path id="Vector_7" d="M41.3987 21.819C42.9914 21.819 44.5841 21.8278 46.1768 21.8115C46.4875 21.809 46.6179 21.8604 46.6016 22.2112C46.5715 22.8829 46.5991 23.5558 46.5915 24.2287C46.5828 24.9981 46.1316 25.4593 45.3685 25.4605C42.4175 25.4655 39.4664 25.4605 36.5154 25.468C36.266 25.468 36.1645 25.4229 36.1695 25.1422C36.187 24.1573 36.1921 23.1711 36.1682 22.1862C36.1595 21.8491 36.2948 21.8127 36.5755 21.814C38.1832 21.824 39.7922 21.819 41.3999 21.819H41.3987Z" fill="white"/>
<path id="Vector_8" d="M24.7211 10.6288C24.7211 9.43966 24.7236 8.31437 24.7211 7.18909C24.7186 5.87459 24.2262 5.38838 22.9004 5.38713C21.4794 5.38713 20.0584 5.37961 18.6386 5.39214C18.3479 5.39465 18.2727 5.34954 18.3429 5.03125C18.8165 2.86213 20.7864 1.32458 23.0094 1.41731C25.1547 1.50628 27.0268 3.26313 27.2862 5.43099C27.5469 7.61264 26.6735 9.54617 24.9981 10.496C24.9329 10.5336 24.8627 10.5624 24.7224 10.6314L24.7211 10.6288Z" fill="white"/>
<path id="Vector_9" d="M6.63894 33.8851C7.03492 33.7949 7.27927 33.9779 7.52864 34.2598C9.12007 36.063 10.7278 37.8525 12.328 39.6481C12.427 39.7597 12.6137 39.8699 12.516 40.0366C12.4245 40.192 12.2578 40.0504 12.1338 40.0216C8.71908 39.2421 5.30814 38.4502 1.89094 37.677C1.57766 37.6069 1.60774 37.4828 1.70799 37.271C2.70295 35.1871 4.35704 34.0706 6.63768 33.8839L6.63894 33.8851Z" fill="white"/>
<path id="Vector_10" d="M41.3423 17.5046C39.7496 17.5046 38.1556 17.4971 36.5629 17.5109C36.2722 17.5134 36.1407 17.4595 36.1695 17.1337C36.2008 16.7765 36.167 16.4144 36.182 16.0548C36.2071 15.4219 36.6532 14.9458 37.2797 14.9433C40.0127 14.9307 42.7457 14.932 45.48 14.9433C46.0853 14.9458 46.5539 15.4031 46.584 16.0034C46.6078 16.4846 46.7431 17.0836 46.5176 17.4169C46.3208 17.7076 45.678 17.4971 45.2331 17.5008C43.9374 17.5134 42.6405 17.5059 41.3435 17.5059L41.3423 17.5046Z" fill="white"/>
<path id="Vector_11" d="M34.5655 40.326C35.9226 40.326 37.2797 40.3373 38.6368 40.3185C38.999 40.3135 39.0466 40.4125 38.9451 40.7433C38.3461 42.6994 36.5579 44.0603 34.5542 44.0603C32.543 44.0603 30.7674 42.7119 30.1559 40.7533C30.0368 40.3712 30.1346 40.3135 30.4942 40.3185C31.8513 40.3361 33.2084 40.326 34.5655 40.326Z" fill="white"/>
<path id="Vector_12" d="M7.22663 43.5214C4.77432 43.5164 3.05256 41.8861 2.91221 39.7683C2.89091 39.4388 2.93477 39.3473 3.30318 39.4363C5.57254 39.9801 7.84441 40.5077 10.1238 41.0039C10.5799 41.1029 10.511 41.2533 10.3331 41.5427C9.54362 42.8284 8.39327 43.4763 7.22663 43.5214Z" fill="white"/>
<path id="Vector_13" d="M41.3849 20.4093C39.7772 20.4093 38.1695 20.403 36.563 20.4155C36.2735 20.418 36.1657 20.3641 36.167 20.0408C36.1733 18.9143 36.1595 18.9143 37.2672 18.9143C40.2321 18.9143 43.1982 18.9206 46.163 18.9055C46.5076 18.9043 46.6103 18.9795 46.6041 19.3391C46.584 20.4093 46.6016 20.4093 45.5527 20.4093C44.1643 20.4093 42.7746 20.4093 41.3862 20.4093H41.3849Z" fill="white"/>
<path id="Vector_14" d="M23.3152 8.97096C23.3152 9.56493 23.3052 10.1601 23.3202 10.7541C23.3265 10.9972 23.2413 11.0724 23.0019 11.0899C20.8854 11.2428 19.0672 9.28298 19.3667 7.17652C19.4068 6.89206 19.487 6.78179 19.7927 6.7868C20.8378 6.80685 21.8841 6.8056 22.9292 6.7868C23.2413 6.78179 23.334 6.87953 23.3215 7.1878C23.2989 7.78176 23.3152 8.37573 23.3152 8.9697V8.97096Z" fill="white"/>
<path id="Vector_15" d="M19.8817 19.7163C19.507 19.7163 19.1311 19.705 18.7564 19.7201C18.5246 19.7301 18.4331 19.6737 18.4244 19.4156C18.3918 18.487 18.3805 18.4432 19.3028 18.4382C20.0258 18.4344 20.5772 18.1875 21.096 17.6963C21.8215 17.0084 22.6034 16.3806 23.3616 15.7277C23.5871 15.5335 23.8202 15.353 24.1159 15.2741C24.5758 15.15 24.9518 15.2929 25.2437 15.6463C25.5332 15.9959 25.547 16.3831 25.3302 16.7816C25.1447 17.1237 24.8565 17.358 24.5395 17.5648C23.5195 18.2301 22.4957 18.888 21.4807 19.5584C21.3015 19.6775 21.1235 19.7263 20.913 19.7188C20.5697 19.7076 20.2251 19.7163 19.8817 19.7163Z" fill="white"/>
<path id="Vector_16" d="M20.4142 35.7108C19.6812 35.7108 18.9481 35.7033 18.2151 35.7158C17.9857 35.7196 17.9281 35.6732 17.9719 35.4289C18.1198 34.6018 18.6599 34.0743 19.5471 34.0404C20.5909 34.0016 21.6373 34.0317 22.6824 34.0217C22.8879 34.0204 22.9718 34.0943 22.948 34.2948C22.9468 34.3099 22.948 34.3262 22.948 34.3412C22.9392 34.776 23.0909 35.3374 22.8766 35.6131C22.6473 35.9076 22.0621 35.687 21.6323 35.7071C21.2275 35.7259 20.8215 35.7108 20.4155 35.7108H20.4142Z" fill="white"/>
<path id="Vector_17" d="M10.12 17.0359C11.3155 17.4331 12.4596 17.8178 13.6074 18.1912C13.7941 18.2526 13.7503 18.3341 13.6914 18.4594C13.541 18.7739 13.4633 19.1085 13.5022 19.4569C13.526 19.6699 13.447 19.7225 13.2465 19.7213C12.2967 19.7138 11.3468 19.715 10.3982 19.7213C10.2153 19.7213 10.1125 19.6987 10.115 19.4744C10.1263 18.6825 10.12 17.8905 10.12 17.0384V17.0359Z" fill="white"/>
<path id="Vector_18" d="M16.0397 19.7175C15.8217 19.7175 15.6024 19.7112 15.3843 19.7187C15.1437 19.7275 14.9357 19.6887 14.9056 19.3992C14.8768 19.1235 14.972 18.8829 15.2465 18.8002C15.774 18.6423 16.3317 18.705 16.873 18.6248C17.0347 18.601 17.0146 18.7463 17.0259 18.8541C17.0894 19.4297 16.7606 19.7171 16.0397 19.7162V19.7175Z" fill="white"/>
</g>
<defs>
<clipPath id="clip0_643_839">
<rect width="48" height="45.4675" fill="white"/>
</clipPath>
</defs>
</svg>
