<svg width="32" height="28" viewBox="0 0 32 28" fill="none" xmlns="http://www.w3.org/2000/svg">
<g id="Layer_1" clip-path="url(#clip0_484_6356)">
<path id="Vector" d="M3.66771 16.8078C3.76584 17.1522 3.96473 17.3292 4.28454 17.33C6.14205 17.3353 7.99956 17.3362 9.85707 17.33C10.2382 17.3283 10.4844 17.0689 10.4862 16.6773C10.4923 15.3639 10.4923 14.0496 10.4862 12.7362C10.4844 12.3305 10.233 12.0878 9.82553 12.0808C9.53288 12.0756 9.16051 11.9853 8.97037 12.129C8.79076 12.2648 8.92832 12.66 8.91693 12.9404C8.90729 13.1804 8.92394 13.4223 8.91167 13.6623C8.8959 13.9716 8.69876 14.1749 8.38859 14.1775C7.51416 14.1863 6.6406 14.1863 5.76617 14.1775C5.44198 14.174 5.25185 13.9637 5.24571 13.6264C5.23783 13.1778 5.23783 12.7283 5.24659 12.2797C5.2501 12.1246 5.20804 12.0659 5.04682 12.0764C4.82953 12.0896 4.6096 12.0852 4.39144 12.0782C4.13296 12.0703 3.93319 12.1641 3.76496 12.3656C3.5319 12.6433 3.22874 12.6801 2.99305 12.4804C2.75998 12.2832 2.74509 11.9739 2.96501 11.69C3.28394 11.2774 3.70801 11.0364 4.22759 11.0329C6.12891 11.0224 8.03023 11.0259 9.93067 11.0303C10.3512 11.0312 10.7078 11.2178 11.0434 11.5025C11.7146 9.67219 12.6267 8.07491 14.6612 7.46596C13.8157 6.74048 13.3171 5.86255 13.1515 4.78922C12.8142 2.6119 14.4053 0.404794 16.5792 0.0569488C19.0316 -0.335582 21.1853 1.29412 21.4823 3.77723C21.5278 4.15837 21.5839 4.56492 21.0819 4.72438C20.9942 4.75242 21.0197 4.82865 21.024 4.88998C21.0494 5.26674 21.1204 5.65226 21.3658 5.93352C21.8783 6.52144 21.5936 7.17069 21.1397 7.53693C21.0048 7.64646 20.9355 7.76299 20.883 7.92859C20.6455 8.67247 20.1444 9.11932 19.2883 9.21745C19.7343 9.79486 20.0655 10.4152 20.6639 10.8112C21.0635 11.075 21.5287 11.0907 21.9642 11.0154C22.8675 10.8594 23.657 10.9865 24.2756 11.7409C24.6777 10.7578 25.3717 10.1786 26.3898 10.0016C27.0268 9.89124 27.2721 10.0945 27.2721 10.7306C27.2721 12.0002 27.2721 13.2707 27.2721 14.5403C27.2721 15.0826 27.0303 15.2955 26.4888 15.2149C26.2549 15.1799 26.0253 15.1115 25.7537 15.0493C25.8247 15.2184 25.8877 15.3718 25.9526 15.5242C26.4757 16.7474 27.0022 17.9688 27.5174 19.1954C27.5902 19.368 27.6681 19.4381 27.8662 19.4425C30.0391 19.4933 31.7836 21.1204 31.9816 23.2671C32.1761 25.3682 30.7602 27.2835 28.6679 27.7531C26.4091 28.2596 24.1135 26.7333 23.6824 24.4236C23.6438 24.2177 23.5878 24.1599 23.3827 24.1599C20.9023 24.1669 18.4218 24.1678 15.9422 24.1599C15.7266 24.1599 15.6854 24.237 15.6469 24.4306C15.2526 26.4021 13.537 27.8092 11.5411 27.8136C9.53989 27.8188 7.8068 26.3924 7.42391 24.407C7.38711 24.2142 7.33366 24.1538 7.1409 24.1608C6.71508 24.1757 6.28837 24.1687 5.86255 24.1643C5.4376 24.1608 5.24221 23.9636 5.24484 23.5396C5.25535 22.029 5.59444 20.5965 6.26997 19.2445C6.42155 18.9413 6.63184 18.6811 6.89119 18.385C6.06407 18.385 5.28427 18.385 4.50359 18.385C3.45217 18.385 2.89579 17.9714 2.6417 16.9638C2.59526 16.7816 2.50326 16.8087 2.38935 16.8087C1.79968 16.8087 1.20913 16.8105 0.619462 16.8078C0.235694 16.8052 0 16.6019 0 16.283C0 15.9632 0.234817 15.7599 0.618586 15.7582C1.20826 15.7547 1.79881 15.7503 2.38848 15.7617C2.56985 15.7652 2.62417 15.7187 2.62592 15.5295C2.63556 14.7059 2.64257 14.7059 1.83561 14.7059C1.29938 14.7059 1.05142 14.5412 1.04879 14.1837C1.04616 13.8253 1.29675 13.6545 1.82772 13.6545C2.57072 13.6545 3.31373 13.6536 4.05673 13.6545C4.4738 13.6545 4.71124 13.8428 4.7165 14.1714C4.72176 14.5 4.4773 14.7295 4.0725 14.6962C3.71765 14.6673 3.64668 14.7935 3.6607 15.1229C3.68874 15.7547 3.66858 15.7555 4.31608 15.7555C4.44751 15.7555 4.57894 15.7494 4.70949 15.7573C5.01966 15.7748 5.2352 15.986 5.24046 16.2707C5.24659 16.5678 5.02404 16.7947 4.69635 16.8043C4.36164 16.814 4.02694 16.8061 3.66595 16.8061L3.66771 16.8078Z" fill="#7785DB"/>
<path id="Vector_2" d="M16.2594 23.1146H6.88602C6.48648 23.1146 6.30832 22.9201 6.35154 22.5311C6.46545 21.5217 6.76248 20.5658 7.24 19.673C7.69035 18.8318 8.41583 18.3955 9.36825 18.3876C10.9839 18.3745 12.6005 18.3806 14.2171 18.385C15.0836 18.3876 15.7241 19.0307 15.7328 19.8973C15.7372 20.2907 15.746 20.6858 15.7311 21.0784C15.7031 21.7907 15.7907 22.4715 16.2594 23.1129V23.1146Z" fill="#FEFEFE"/>
<path id="Vector_3" d="M20.7314 11.9661C20.4808 12.3963 20.3389 12.8431 20.3485 13.3206C20.3537 13.5756 20.2425 13.5546 20.0769 13.5046C18.9738 13.1708 18.0809 12.5452 17.429 11.5867C17.3493 11.4693 17.281 11.3448 17.2021 11.2274C17.0225 10.9593 16.7483 10.8831 16.4959 11.0259C16.2348 11.174 16.1463 11.4833 16.3154 11.7602C16.4854 12.0388 16.6747 12.3069 16.8744 12.5654C16.9585 12.674 16.9542 12.7301 16.8683 12.8317C16.4503 13.332 16.1481 13.8963 15.9895 14.5315C15.9518 14.6805 15.8729 14.7094 15.7345 14.7085C14.4027 14.7041 13.0709 14.7015 11.7391 14.7111C11.5463 14.7129 11.5297 14.6332 11.535 14.4816C11.5744 13.3995 11.8539 12.3726 12.2385 11.3685C12.5303 10.6062 12.9351 9.91841 13.5064 9.32699C14.7365 8.05564 17.125 8.01885 18.2895 9.63015C18.4875 9.90439 18.689 10.1769 18.887 10.4511C19.3672 11.1144 19.9016 11.712 20.7305 11.9661H20.7314Z" fill="#FEFEFE"/>
<path id="Vector_4" d="M22.5494 23.1146C23.2022 22.1797 23.1794 21.2256 22.9288 20.2188C22.4758 18.399 22.0666 16.5678 21.6338 14.7173C22.4933 14.6971 23.3082 14.5341 24.0766 14.174C24.2816 14.0776 24.258 14.2827 24.293 14.3633C24.8958 15.7529 25.4899 17.146 26.0857 18.5374C26.253 18.9282 26.4151 19.3207 26.5904 19.708C26.6517 19.8429 26.6438 19.9411 26.5553 20.0637C25.8675 21.0214 25.1858 21.9835 24.5068 22.9473C24.4253 23.0629 24.3403 23.1225 24.1879 23.1199C23.6648 23.1085 23.1408 23.1155 22.5494 23.1155V23.1146Z" fill="#FEFEFE"/>
<path id="Vector_5" d="M19.439 3.67033C19.1814 3.68523 18.8747 3.64405 18.5716 3.7045C17.5035 3.91742 16.7938 4.76819 16.7833 5.85816C16.7798 6.25157 16.7693 6.64673 16.7877 7.03926C16.7982 7.2732 16.7342 7.30913 16.5143 7.2513C15.2526 6.91747 14.3238 5.83976 14.1723 4.51322C14.0356 3.31022 14.7234 2.03274 15.8309 1.43431C17.6218 0.467002 19.8079 1.41065 20.3476 3.37418C20.4195 3.63616 20.3625 3.69925 20.1075 3.67471C19.9016 3.65544 19.6931 3.67033 19.439 3.67033Z" fill="#FEFEFE"/>
<path id="Vector_6" d="M11.4246 17.3335C11.5858 16.8867 11.5376 16.446 11.5323 16.0105C11.5306 15.8204 11.5621 15.7494 11.7768 15.7512C13.2733 15.7626 14.7707 15.745 16.2672 15.7608C17.8628 15.7774 18.873 16.8166 18.8791 18.4183C18.8818 19.2068 18.8739 19.9945 18.8844 20.7831C18.887 20.9697 18.8345 21.0214 18.6496 21.017C18.1037 21.0048 17.557 21.0048 17.0111 21.017C16.8236 21.0214 16.7789 20.9636 16.7772 20.7813C16.7728 20.3117 16.8254 19.8412 16.7299 19.3733C16.4872 18.1826 15.4795 17.3432 14.2616 17.3353C13.3233 17.3292 12.384 17.3344 11.4246 17.3344V17.3335Z" fill="#FEFEFE"/>
<path id="Vector_7" d="M21.47 22.7256C21.2851 21.916 20.8557 21.3771 20.0996 21.1406C19.927 21.0862 19.927 20.9855 19.927 20.8471C19.9305 19.9612 19.9305 19.0745 19.9287 18.1887C19.9252 16.5853 18.8256 15.1895 17.2722 14.8461C17.0119 14.7891 17.0154 14.7015 17.0987 14.5C17.2292 14.1854 17.3904 13.8919 17.5876 13.615C17.6787 13.4871 17.7374 13.4486 17.8855 13.5625C18.625 14.1311 19.4609 14.4868 20.38 14.6384C20.5088 14.6594 20.5614 14.7111 20.5903 14.8391C21.0634 16.9139 21.5558 18.9843 22.0114 21.0626C22.1455 21.6742 22.0097 22.2516 21.4717 22.7265L21.47 22.7256Z" fill="#FEFEFE"/>
<path id="Vector_8" d="M26.5607 21.8512C26.8446 21.4516 27.125 21.0626 27.3983 20.6683C27.4772 20.5553 27.5525 20.4869 27.7094 20.4817C29.3399 20.4265 30.7734 21.6978 30.9337 23.3538C31.0958 25.0273 29.9077 26.5011 28.1799 26.7701C26.643 27.0093 25.0554 25.8799 24.7251 24.3106C24.7163 24.2703 24.7242 24.2265 24.7242 24.1643C25.023 24.1643 25.3174 24.1739 25.61 24.1608C25.7791 24.1529 25.7949 24.2598 25.8405 24.3746C26.1997 25.2744 27.0522 25.8133 27.9775 25.7335C28.9097 25.6529 29.6703 24.9835 29.8543 24.0372C30.0137 23.2154 29.7553 22.5144 29.1016 21.9957C28.4261 21.4595 27.6726 21.3955 26.8858 21.746C26.7973 21.7854 26.7114 21.8284 26.6238 21.8687C26.6159 21.8722 26.6036 21.8634 26.5607 21.8512Z" fill="#FEFEFE"/>
<path id="Vector_9" d="M14.606 24.1652C14.5228 25.3103 13.4635 26.4406 12.2333 26.7149C10.5738 27.0846 8.92834 26.0761 8.49463 24.435C8.43768 24.2186 8.46046 24.1266 8.69878 24.1643C8.73032 24.1695 8.76449 24.1687 8.79691 24.1643C9.24815 24.1012 9.53291 24.1967 9.76597 24.6865C10.1156 25.4225 10.8191 25.7476 11.6357 25.7055C12.4935 25.6617 13.1156 25.2218 13.4582 24.4298C13.545 24.23 13.6282 24.1371 13.8551 24.159C14.1031 24.1836 14.3545 24.1643 14.606 24.1643V24.1652Z" fill="#FEFEFE"/>
<path id="Vector_10" d="M17.8313 6.69492C17.8313 6.40053 17.8243 6.10525 17.833 5.81085C17.8505 5.20366 18.3105 4.74191 18.916 4.72351C19.2209 4.71475 19.5687 4.63151 19.8193 4.74804C20.0717 4.86545 19.9551 5.26236 20.041 5.52785C20.1418 5.84064 20.2417 6.15344 20.4239 6.42506C20.5369 6.59416 20.5229 6.70018 20.3529 6.7878C20.0664 6.935 19.9402 7.15405 19.9069 7.48612C19.8605 7.94436 19.5609 8.15202 19.0938 8.15815C18.6917 8.16341 18.3316 7.99606 17.9513 7.90932C17.8199 7.87953 17.8304 7.77789 17.8313 7.67888C17.8321 7.35119 17.8313 7.02349 17.8313 6.6958V6.69492Z" fill="#FEFEFE"/>
<path id="Vector_11" d="M16.877 22.0641C17.7908 22.0641 18.6504 22.0562 19.5099 22.0676C19.9638 22.0737 20.3423 22.4128 20.4369 22.85C20.4702 23.006 20.4518 23.1041 20.2617 23.1041C19.5651 23.1024 18.865 23.1462 18.172 23.0945C17.5683 23.0489 17.1424 22.6844 16.877 22.065V22.0641Z" fill="#FEFEFE"/>
<path id="Vector_12" d="M21.7925 13.6545C21.3728 13.6641 21.3308 13.6168 21.3816 13.1918C21.464 12.511 21.9897 12.016 22.6389 12.009C23.1944 12.0028 23.7122 12.4961 23.7455 13.0525C23.7534 13.1839 23.6553 13.1822 23.5852 13.2181C23.1217 13.4538 22.3472 13.6413 21.7917 13.6545H21.7925Z" fill="#FEFEFE"/>
<path id="Vector_13" d="M26.2083 11.1521V14.0452C25.6134 13.8788 25.1876 13.2961 25.1744 12.6442C25.1604 11.9634 25.5617 11.3729 26.2083 11.1521Z" fill="#FEFEFE"/>
<path id="Vector_14" d="M26.9338 24.1652C27.2195 24.1652 27.4867 24.1704 27.7531 24.1634C28.086 24.1546 28.3103 23.9479 28.3182 23.6535C28.327 23.3459 28.0965 23.1242 27.7487 23.1155C27.4876 23.1094 27.2265 23.1146 26.9628 23.1146C27.0872 22.7615 27.5034 22.5407 27.9301 22.5959C28.4058 22.6572 28.7975 23.0559 28.843 23.5273C28.8912 24.032 28.5977 24.4806 28.1167 24.6365C27.6514 24.7872 27.202 24.6181 26.9338 24.166V24.1652Z" fill="#FDFDFD"/>
<path id="Vector_15" d="M7.07785 13.1296C6.28228 13.1296 6.29104 13.1296 6.28666 12.341C6.28491 12.1246 6.34361 12.0642 6.55652 12.0738C6.92715 12.0913 7.29865 12.0861 7.67015 12.0756C7.82962 12.0703 7.89183 12.1211 7.86642 12.2771C7.86467 12.2876 7.86642 12.299 7.86642 12.3095C7.87985 12.8562 7.61729 13.1296 7.07873 13.1296H7.07785Z" fill="#FEFEFE"/>
<path id="Vector_16" d="M12.4137 24.1923C11.9003 24.8389 11.1616 24.8372 10.6631 24.1923H12.4137Z" fill="#FBFBFB"/>
</g>
<defs>
<clipPath id="clip0_484_6356">
<rect width="32" height="27.8513" fill="white"/>
</clipPath>
</defs>
</svg>
