<svg width="20" height="20" viewBox="0 0 20 20" fill="none" xmlns="http://www.w3.org/2000/svg">
<g id="simple-line-icons:earphones-alt" clip-path="url(#clip0_486_8245)">
<path id="Vector" d="M19.9967 11.1825C19.9986 10.7713 19.9339 9.21969 19.8845 8.77594C19.3158 3.68313 15.1823 -0.0131226 10.0567 -0.0131226C4.71795 -0.0131226 0.392344 4.10063 0.0988867 9.55532C0.0926367 9.67438 0.0488867 10.5191 0.0457617 11.0219L0.0441992 11.3016C0.0185547 11.4172 0.00292969 11.5366 0.00292969 11.6597V15.8522C0.00292969 16.7678 0.747617 17.5125 1.66324 17.5125H3.34855C4.26418 17.5125 5.00916 16.7678 5.00916 15.8522V11.66C5.00916 10.7444 4.26385 9.99969 3.34854 9.99969H1.66293C1.55019 9.99971 1.43775 10.0111 1.3273 10.0338C1.33668 9.83096 1.34512 9.67094 1.34732 9.6225C1.60451 4.84157 5.39295 1.23688 10.0567 1.23688C14.5348 1.23688 18.1451 4.46625 18.642 8.915C18.6629 9.10063 18.6898 9.5725 18.7114 10.0463C18.5904 10.0181 18.4657 9.99967 18.3364 9.99967H16.6707C15.7551 9.99967 15.0104 10.7444 15.0104 11.66V15.8331C15.0104 16.4653 15.3698 17.01 15.8911 17.29L11.8786 18.8653V18.7634C11.8786 18.4184 11.5986 18.1384 11.2536 18.1384H9.37859C9.03358 18.1384 8.75359 18.4184 8.75359 18.7634V19.3884C8.75359 19.7334 9.03358 20.0134 9.37859 20.0134H11.2536C11.2589 20.0134 11.2636 20.0119 11.2689 20.0119L12.3892 20.0075L18.8258 17.4806C18.9102 17.4456 18.9818 17.3934 19.0405 17.3309C19.6039 17.065 19.9974 16.4962 19.9974 15.8331V11.66C19.9974 11.5581 19.9849 11.459 19.9671 11.3624C19.9842 11.3049 19.9964 11.2453 19.9967 11.1824L19.9967 11.1825ZM1.66295 11.2497H3.3483C3.57486 11.2497 3.75891 11.4334 3.75891 11.66V15.8525C3.75891 16.0791 3.57453 16.2628 3.34826 16.2628H1.66297C1.43641 16.2628 1.25268 16.079 1.25268 15.8525V11.66C1.25297 11.4334 1.4367 11.2497 1.66295 11.2497ZM16.2602 11.66C16.2602 11.4334 16.4439 11.2497 16.6705 11.2497H18.3361C18.5627 11.2497 18.7467 11.4334 18.7467 11.66V15.8331C18.7467 16.0597 18.5623 16.2434 18.3361 16.2434H16.6705C16.4439 16.2434 16.2602 16.0597 16.2602 15.8331V11.66Z" fill="#C7C7C7"/>
</g>
<defs>
<clipPath id="clip0_486_8245">
<rect width="20" height="20" fill="white"/>
</clipPath>
</defs>
</svg>
