<svg width="24" height="24" viewBox="0 0 24 24" fill="none" xmlns="http://www.w3.org/2000/svg">
<g id="la:edit">
<path id="Vector" d="M18.75 3.02326C18.1755 3.02326 17.613 3.24601 17.1795 3.67951L9.75 11.0858L9.58575 11.25L9.53925 11.4848L9.02325 14.1098L8.78925 15.2108L9.891 14.9768L12.516 14.4608L12.75 14.4143L12.9142 14.25L20.3205 6.82051C20.6309 6.5093 20.8422 6.11317 20.9278 5.68203C21.0134 5.2509 20.9695 4.80408 20.8015 4.39789C20.6336 3.9917 20.3491 3.64432 19.984 3.39956C19.6189 3.1548 19.1895 3.02435 18.75 3.02326ZM18.75 4.47676C18.9255 4.47676 19.0987 4.56676 19.266 4.73401C19.5997 5.06851 19.5997 5.43151 19.266 5.76526L12 13.032L10.7107 13.29L10.9687 12.0008L18.2347 4.73476C18.4012 4.56826 18.5745 4.47676 18.75 4.47676ZM3 6.00001V21H18V11.109L16.5 12.609V19.5H4.5V7.50001H11.391L12.891 6.00001H3Z" fill="#7785DB"/>
</g>
</svg>
