<svg width="24" height="24" viewBox="0 0 24 24" fill="none" xmlns="http://www.w3.org/2000/svg">
<g id="mdi-light:logout">
<path id="Vector" d="M19 21H13C12.2044 21 11.4413 20.6839 10.8787 20.1213C10.3161 19.5587 10 18.7956 10 18V14H11V18C11 18.5304 11.2107 19.0391 11.5858 19.4142C11.9609 19.7893 12.4696 20 13 20H19C19.5304 20 20.0391 19.7893 20.4142 19.4142C20.7893 19.0391 21 18.5304 21 18L21 5C21 4.46957 20.7893 3.96086 20.4142 3.58579C20.0391 3.21071 19.5304 3 19 3H13C12.4696 3 11.9609 3.21071 11.5858 3.58579C11.2107 3.96086 11 4.46957 11 5V9H10V5C10 4.20435 10.3161 3.44129 10.8787 2.87868C11.4413 2.31607 12.2044 2 13 2H19C19.7956 2 20.5587 2.31607 21.1213 2.87868C21.6839 3.44129 22 4.20435 22 5L22 18C22 18.7956 21.6839 19.5587 21.1213 20.1213C20.5587 20.6839 19.7956 21 19 21ZM16 12L4.75 12L8 15.25L7.34 16L2.84 11.5L7.34 7L8 7.75L4.75 11L16 11V12Z" fill="#EB001B"/>
</g>
</svg>
