<svg width="20" height="20" viewBox="0 0 20 20" fill="none" xmlns="http://www.w3.org/2000/svg">
<g id="ph:note-light">
<path id="Vector" d="M7.03125 7.5C7.03125 7.37568 7.08064 7.25645 7.16854 7.16854C7.25645 7.08064 7.37568 7.03125 7.5 7.03125H12.5C12.6243 7.03125 12.7435 7.08064 12.8315 7.16854C12.9194 7.25645 12.9688 7.37568 12.9688 7.5C12.9688 7.62432 12.9194 7.74355 12.8315 7.83146C12.7435 7.91936 12.6243 7.96875 12.5 7.96875H7.5C7.37568 7.96875 7.25645 7.91936 7.16854 7.83146C7.08064 7.74355 7.03125 7.62432 7.03125 7.5ZM7.5 10.4688H12.5C12.6243 10.4688 12.7435 10.4194 12.8315 10.3315C12.9194 10.2435 12.9688 10.1243 12.9688 10C12.9688 9.87568 12.9194 9.75645 12.8315 9.66854C12.7435 9.58064 12.6243 9.53125 12.5 9.53125H7.5C7.37568 9.53125 7.25645 9.58064 7.16854 9.66854C7.08064 9.75645 7.03125 9.87568 7.03125 10C7.03125 10.1243 7.08064 10.2435 7.16854 10.3315C7.25645 10.4194 7.37568 10.4688 7.5 10.4688ZM10 12.0312H7.5C7.37568 12.0312 7.25645 12.0806 7.16854 12.1685C7.08064 12.2565 7.03125 12.3757 7.03125 12.5C7.03125 12.6243 7.08064 12.7435 7.16854 12.8315C7.25645 12.9194 7.37568 12.9688 7.5 12.9688H10C10.1243 12.9688 10.2435 12.9194 10.3315 12.8315C10.4194 12.7435 10.4688 12.6243 10.4688 12.5C10.4688 12.3757 10.4194 12.2565 10.3315 12.1685C10.2435 12.0806 10.1243 12.0312 10 12.0312ZM17.3438 3.75V12.2414C17.344 12.3851 17.3159 12.5274 17.2609 12.6601C17.2059 12.7929 17.1252 12.9134 17.0234 13.0148L13.0148 17.0234C12.9134 17.1252 12.7929 17.2059 12.6601 17.2609C12.5274 17.3159 12.3851 17.344 12.2414 17.3438H3.75C3.45992 17.3438 3.18172 17.2285 2.9766 17.0234C2.77148 16.8183 2.65625 16.5401 2.65625 16.25V3.75C2.65625 3.45992 2.77148 3.18172 2.9766 2.9766C3.18172 2.77148 3.45992 2.65625 3.75 2.65625H16.25C16.5401 2.65625 16.8183 2.77148 17.0234 2.9766C17.2285 3.18172 17.3438 3.45992 17.3438 3.75ZM3.75 16.4062H12.0312V12.5C12.0312 12.3757 12.0806 12.2565 12.1685 12.1685C12.2565 12.0806 12.3757 12.0312 12.5 12.0312H16.4062V3.75C16.4062 3.70856 16.3898 3.66882 16.3605 3.63951C16.3312 3.61021 16.2914 3.59375 16.25 3.59375H3.75C3.70856 3.59375 3.66882 3.61021 3.63951 3.63951C3.61021 3.66882 3.59375 3.70856 3.59375 3.75V16.25C3.59375 16.2914 3.61021 16.3312 3.63951 16.3605C3.66882 16.3898 3.70856 16.4062 3.75 16.4062ZM15.7438 12.9688H12.9688V15.7438L15.7438 12.9688Z" fill="#C7C7C7"/>
</g>
</svg>
