<svg width="24" height="24" viewBox="0 0 24 24" fill="none" xmlns="http://www.w3.org/2000/svg">
<g id="mingcute:notification-line" clip-path="url(#clip0_489_8352)">
<g id="Group">
<path id="Vector" fill-rule="evenodd" clip-rule="evenodd" d="M14.9383 19C14.9385 19.5046 14.7479 19.9906 14.4048 20.3605C14.0617 20.7305 13.5915 20.9572 13.0883 20.995L12.9383 21H10.9383C10.4337 21.0002 9.94776 20.8096 9.57778 20.4665C9.2078 20.1234 8.98117 19.6532 8.94333 19.15L8.93832 19H14.9383ZM11.9383 2C13.7533 1.99997 15.4973 2.70489 16.8026 3.96607C18.1078 5.22726 18.8721 6.94609 18.9343 8.76L18.9383 9V12.764L20.7603 16.408C20.8398 16.567 20.8796 16.7429 20.8763 16.9206C20.873 17.0984 20.8266 17.2727 20.7412 17.4286C20.6558 17.5845 20.5338 17.7174 20.3858 17.8158C20.2378 17.9143 20.0681 17.9754 19.8913 17.994L19.7763 18H4.10033C3.92249 18.0001 3.74729 17.957 3.58975 17.8745C3.4322 17.792 3.297 17.6725 3.19574 17.5264C3.09448 17.3802 3.03017 17.2116 3.00833 17.0351C2.98649 16.8586 3.00776 16.6795 3.07033 16.513L3.11633 16.408L4.93833 12.764V9C4.93833 7.14348 5.67582 5.36301 6.98858 4.05025C8.30133 2.7375 10.0818 2 11.9383 2ZM11.9383 4C10.6499 4.00007 9.41116 4.49754 8.48055 5.38866C7.54993 6.27978 6.99924 7.49575 6.94333 8.783L6.93833 9V12.764C6.93834 13.012 6.89222 13.2579 6.80233 13.489L6.72733 13.659L5.55733 16H18.3203L17.1503 13.658C17.0393 13.4363 16.9705 13.1959 16.9473 12.949L16.9383 12.764V9C16.9383 7.67392 16.4115 6.40215 15.4739 5.46447C14.5362 4.52678 13.2644 4 11.9383 4Z" fill="white"/>
</g>
</g>
<defs>
<clipPath id="clip0_489_8352">
<rect width="24" height="24" fill="white"/>
</clipPath>
</defs>
</svg>
