<svg width="20" height="20" viewBox="0 0 20 20" fill="none" xmlns="http://www.w3.org/2000/svg">
<g id="iconamoon:phone-thin">
<path id="Vector" d="M16.2549 6.63334C15.6606 8.95219 14.454 11.0687 12.7613 12.7614C11.0686 14.454 8.9521 15.6607 6.63325 16.255C4.84909 16.7092 3.33325 15.175 3.33325 13.3333V12.5C3.33325 12.04 3.70742 11.6708 4.16492 11.625C4.92369 11.5502 5.6685 11.371 6.37825 11.0925L7.64492 12.3592C9.70735 11.3705 11.3705 9.70743 12.3591 7.645L11.0924 6.37834C11.3712 5.66862 11.5507 4.92381 11.6258 4.165C11.6708 3.70667 12.0399 3.33334 12.4999 3.33334H13.3333C15.1749 3.33334 16.7091 4.84917 16.2549 6.63334Z" stroke="#C7C7C7" stroke-linecap="round" stroke-linejoin="round"/>
</g>
</svg>
