<svg width="20" height="20" viewBox="0 0 20 20" fill="none" xmlns="http://www.w3.org/2000/svg">
<g id="tabler:category">
<path id="Vector" d="M3.33337 3.33334H8.33337V8.33334H3.33337V3.33334ZM11.6667 3.33334H16.6667V8.33334H11.6667V3.33334ZM3.33337 11.6667H8.33337V16.6667H3.33337V11.6667ZM11.6667 14.1667C11.6667 14.8297 11.9301 15.4656 12.3989 15.9344C12.8678 16.4033 13.5037 16.6667 14.1667 16.6667C14.8297 16.6667 15.4656 16.4033 15.9345 15.9344C16.4033 15.4656 16.6667 14.8297 16.6667 14.1667C16.6667 13.5036 16.4033 12.8677 15.9345 12.3989C15.4656 11.9301 14.8297 11.6667 14.1667 11.6667C13.5037 11.6667 12.8678 11.9301 12.3989 12.3989C11.9301 12.8677 11.6667 13.5036 11.6667 14.1667Z" stroke="#C7C7C7" stroke-width="1.66667" stroke-linecap="round" stroke-linejoin="round"/>
</g>
</svg>
