<svg width="20" height="20" viewBox="0 0 20 20" fill="none" xmlns="http://www.w3.org/2000/svg">
<g id="solar:bag-3-linear">
<g id="Group">
<path id="Vector" d="M3.11832 15.4625C4.11832 16.6667 5.97832 16.6667 9.69916 16.6667H10.3008C14.0217 16.6667 15.8825 16.6667 16.8825 15.4625M3.11832 15.4625C2.11832 14.2575 2.46166 12.4292 3.14749 8.77083C3.63499 6.17083 3.87832 4.87 4.80416 4.10167M16.8825 15.4625C17.8825 14.2575 17.5392 12.4292 16.8533 8.77083C16.3658 6.17083 16.1217 4.87 15.1958 4.10167M15.1958 4.10167C14.2708 3.33333 12.9467 3.33333 10.3008 3.33333H9.69916C7.05332 3.33333 5.72999 3.33333 4.80416 4.10167" stroke="#C7C7C7" stroke-width="1.5"/>
<path id="Vector_2" d="M7.6416 6.66667C7.81377 7.15461 8.13305 7.57714 8.55543 7.87601C8.97782 8.17488 9.48251 8.33538 9.99993 8.33538C10.5174 8.33538 11.0221 8.17488 11.4444 7.87601C11.8668 7.57714 12.1861 7.15461 12.3583 6.66667" stroke="#C7C7C7" stroke-width="1.5" stroke-linecap="round"/>
</g>
</g>
</svg>
