<svg width="24" height="23" viewBox="0 0 24 23" fill="none" xmlns="http://www.w3.org/2000/svg">
<g id="Layer_1" clip-path="url(#clip0_597_995)">
<path id="Vector" d="M24 12.4007C23.9423 12.4345 23.9593 12.4978 23.9423 12.5473C23.7619 13.0842 23.2895 13.4314 22.7212 13.4351C22.1899 13.4389 21.6586 13.442 21.1279 13.432C20.9813 13.4295 20.9399 13.469 20.9481 13.6137C20.9606 13.8399 20.9456 14.0679 20.9524 14.2947C20.9625 14.618 20.8691 14.8962 20.6216 15.1118C20.5646 15.1619 20.5308 15.1964 20.5728 15.2834C21.064 16.3091 21.1191 17.3905 20.9481 18.492C20.9092 18.7445 20.9938 18.9694 21.0157 19.2069C21.0308 19.3704 21.0533 19.534 21.0546 19.6975C21.0558 19.9876 20.8992 20.1755 20.6116 20.1505C20.3002 20.1235 20.2219 20.2557 20.1467 20.5295C19.7733 21.8892 18.5371 22.7807 17.1393 22.7312C15.8078 22.6842 14.6406 21.6874 14.3486 20.3366C14.3198 20.2025 14.2741 20.1593 14.1368 20.1599C11.8011 20.1636 9.46528 20.1636 7.1295 20.1599C6.98978 20.1599 6.9478 20.2019 6.92838 20.3403C6.8676 20.7827 6.70032 20.8998 6.27176 20.7783C6.04745 20.7144 5.95096 20.7507 5.84257 20.9763C5.30311 22.1016 4.02871 22.6899 2.82448 22.3985C1.60709 22.1041 0.736812 20.9957 0.759368 19.7457C0.763127 19.5584 0.713003 19.4782 0.535689 19.4575C0.451105 19.4481 0.367147 19.4249 0.285069 19.4011C0.0526192 19.3328 -0.0394837 19.1712 0.0156527 18.9362C0.369027 17.4275 1.73365 16.2972 3.28061 16.2458C3.4504 16.2402 3.52057 16.1863 3.56381 16.0253C3.69413 15.5353 3.84199 15.0497 3.98234 14.5629C4.08071 14.2208 4.23735 14.0842 4.46353 14.1469C4.69598 14.2108 4.75989 14.4075 4.66215 14.7484C4.50864 15.2803 4.36078 15.8148 4.19913 16.3442C4.16216 16.4657 4.17595 16.5434 4.2599 16.6368C5.07003 17.5378 5.87703 18.4425 6.68152 19.3485C6.74919 19.4249 6.81623 19.4657 6.92086 19.46C7.07625 19.4525 7.23163 19.4581 7.41521 19.4581C6.81309 18.0378 6.33754 16.6073 6.22852 15.0767C6.1195 13.5398 6.37952 12.0561 6.85758 10.563C6.53867 10.563 6.2398 10.563 5.94156 10.563C5.81437 10.563 5.83004 10.6739 5.80873 10.7478C5.60511 11.4439 5.40398 12.1413 5.20223 12.838C5.19785 12.8531 5.1966 12.8687 5.19221 12.8838C5.11076 13.1544 4.95224 13.2728 4.7436 13.219C4.51679 13.1601 4.43033 12.9727 4.5099 12.6939C4.65338 12.1914 4.8025 11.6902 4.94848 11.1883C5.00675 10.9878 5.06126 10.7854 5.12329 10.5624C4.99234 10.5624 4.88457 10.5649 4.77618 10.5624C4.4911 10.5555 4.35952 10.4283 4.35827 10.1451C4.35514 9.55051 4.35326 8.95529 4.35952 8.36069C4.36454 7.89328 4.65588 7.66209 5.10011 7.7993C5.85886 8.03363 6.6126 8.28425 7.36258 8.54552C7.63701 8.64138 7.90642 8.65955 8.189 8.63324C8.70214 8.58499 9.21591 8.54239 9.72968 8.50542C9.82931 8.4979 9.91139 8.47472 9.97905 8.40267C9.98407 8.39703 9.99033 8.39202 9.9966 8.387C10.2428 8.17084 10.5655 7.99666 10.7146 7.72662C10.8644 7.45595 10.7535 7.0819 10.8211 6.7586C10.8575 6.58317 10.9609 6.36513 10.8944 6.2417C10.8305 6.1239 10.583 6.11075 10.422 6.03932C9.45839 5.61201 8.87069 4.61329 8.98409 3.58136C9.00038 3.4335 8.97595 3.39465 8.82369 3.3934C8.51668 3.39089 8.40391 3.25994 8.4108 2.95544C8.44714 1.29383 9.82241 -0.0306966 11.4784 4.30853e-06C12.89 0.0263194 14.1707 1.1823 14.3398 2.59142C14.4576 3.57447 14.2502 4.47044 13.608 5.24485C13.5629 5.29936 13.4802 5.3426 13.5905 5.42843C14.6876 6.27804 15.2421 7.45971 15.5873 8.7598C15.8843 9.87882 15.9795 11.0223 15.9426 12.1776C15.9369 12.3562 15.9006 12.5335 15.8761 12.7309C16.3373 12.7309 16.7972 12.7252 17.2564 12.7334C17.4388 12.7365 17.383 12.6137 17.3836 12.5266C17.3861 11.1257 17.3842 9.72469 17.3861 8.3231C17.3861 8.14328 17.3767 7.9597 17.4106 7.78552C17.5296 7.18089 18.0434 6.76612 18.6649 6.76424C20.0089 6.76111 21.3522 6.76173 22.6961 6.76424C23.3039 6.76487 23.7732 7.11699 23.9517 7.69717C23.963 7.73351 23.9586 7.77612 24 7.79679V12.4001V12.4007Z" fill="white"/>
<path id="Vector_2" d="M7.80684 18.5603C8.97786 18.5603 10.1025 18.5603 11.2272 18.5603C11.3362 18.5603 11.4458 18.5609 11.5549 18.5553C11.9615 18.5327 12.1626 18.3316 12.1726 17.9137C12.1833 17.4833 12.1758 17.0528 12.1758 16.6224C12.1758 16.2778 12.1877 15.9332 12.1714 15.5898C12.162 15.3912 12.2052 15.3242 12.422 15.3279C13.234 15.343 14.0467 15.3329 14.8587 15.3348C15.0635 15.3348 15.2352 15.2853 15.2841 15.056C15.338 14.8048 15.1707 14.6325 14.8662 14.6306C14.1632 14.6268 13.4602 14.6293 12.7572 14.6293C12.6087 14.6293 12.4602 14.6243 12.3124 14.6312C12.2102 14.6362 12.1827 14.6024 12.1808 14.4984C12.1745 14.1488 12.2272 14.0917 12.5699 14.0848C13.209 14.0723 13.8512 14.1356 14.4846 14.0021C14.8355 13.9282 15.1525 13.7854 15.4063 13.5278C15.4808 13.452 15.5566 13.4345 15.6544 13.4345C17.123 13.4364 18.591 13.4382 20.0597 13.432C20.2138 13.4314 20.2601 13.4721 20.2514 13.6256C20.2382 13.8436 20.2489 14.0635 20.2476 14.2828C20.2464 14.5742 20.1956 14.6281 19.9068 14.6281C18.8448 14.6299 17.7821 14.6281 16.7201 14.6287C16.3417 14.6287 16.17 14.7408 16.1732 14.9858C16.1757 15.2289 16.3423 15.3336 16.7277 15.3336C17.6963 15.3336 18.665 15.3348 19.633 15.3323C19.7495 15.3323 19.8285 15.3467 19.8905 15.4714C20.2006 16.0911 20.3272 16.7477 20.3322 17.44C20.2338 17.4375 20.2157 17.3554 20.1731 17.3078C19.0854 16.0785 17.7295 15.628 16.1631 16.0854C14.6168 16.5365 13.7183 17.6349 13.4489 19.2307C13.4176 19.4155 13.3606 19.4632 13.1726 19.4619C11.5793 19.4525 9.98598 19.4531 8.39266 19.4606C8.22475 19.4613 8.14455 19.4118 8.09067 19.2539C8.0136 19.0277 7.91022 18.8103 7.80621 18.5609L7.80684 18.5603Z" fill="#7785DB"/>
<path id="Vector_3" d="M9.22911 10.563C9.67396 10.563 10.1194 10.5611 10.5643 10.5643C10.7065 10.5649 10.8462 10.5643 10.9653 10.4715C11.0662 10.3926 11.0887 10.4471 11.1113 10.5442C11.1664 10.7792 11.2322 11.0123 11.2955 11.2453C11.3174 11.3249 11.3337 11.3782 11.2215 11.4201C10.0937 11.8399 9.64514 12.7453 9.51669 13.8637C9.43148 14.6036 9.48286 15.3486 9.47847 16.0917C9.47722 16.2659 9.45216 16.3542 9.25605 16.4188C8.70343 16.6005 8.39642 17.0227 8.30119 17.5866C8.26673 17.7909 8.21535 17.8736 7.98854 17.8623C7.53617 17.8398 7.54243 17.8536 7.40146 17.4168C6.67779 15.1669 6.80248 12.9376 7.54557 10.7197C7.5888 10.5912 7.64769 10.558 7.77676 10.5605C8.26046 10.5687 8.74478 10.5636 9.22911 10.5636V10.563Z" fill="#7785DB"/>
<path id="Vector_4" d="M17.2001 19.4588C16.2634 19.4588 15.3267 19.4588 14.39 19.4588C14.2029 19.4588 14.1262 19.3669 14.1601 19.1831C14.4119 17.8247 15.6011 16.7471 16.9739 16.6336C18.3698 16.5177 19.6812 17.3623 20.1593 18.6837C20.2282 18.8748 20.2677 19.0734 20.3159 19.2702C20.3585 19.4418 20.3002 19.4625 20.1505 19.4619C19.1668 19.4569 18.1838 19.4594 17.2001 19.4594V19.4588Z" fill="#7785DB"/>
<path id="Vector_5" d="M11.4903 7.10508C11.4934 7.04618 11.4972 6.99982 11.4972 6.95408C11.4997 6.46412 11.6676 6.12954 12.2259 6.10323C12.3813 6.09633 12.5479 6.0224 12.682 5.93594C12.8762 5.81125 13.0103 5.86451 13.1732 5.99295C13.8912 6.55685 14.3405 7.30557 14.6594 8.14139C15.0222 9.09124 15.1681 10.0862 15.2333 11.0962C15.2427 11.2441 15.2095 11.2942 15.0491 11.2929C14.1043 11.2848 13.1594 11.2867 12.2146 11.2917C12.083 11.2923 12.0197 11.2585 11.989 11.1231C11.9151 10.7961 11.8299 10.4715 11.7365 10.1495C11.7021 10.0292 11.7309 9.96716 11.833 9.90325C12.1494 9.70338 12.464 9.50038 12.771 9.28673C13.0736 9.07621 13.3035 8.80115 13.3975 8.43712C13.5184 7.97097 13.385 7.56497 13.0373 7.24543C12.6757 6.91335 12.2491 6.82063 11.7779 6.98666C11.6839 7.01987 11.5924 7.06185 11.4878 7.10445L11.4903 7.10508Z" fill="#7785DB"/>
<path id="Vector_6" d="M13.4965 11.9934C14.004 11.9934 14.5116 11.9997 15.0184 11.9897C15.1939 11.9859 15.2622 12.016 15.2434 12.2177C15.1782 12.9019 14.8386 13.2622 14.155 13.3455C13.6099 13.4119 13.0636 13.3718 12.5179 13.38C11.8318 13.39 11.5022 13.7033 11.4847 14.3981C11.4709 14.9608 11.4703 15.524 11.4772 16.0867C11.4791 16.2527 11.4509 16.3229 11.2641 16.3122C10.9527 16.2947 10.6401 16.3072 10.3281 16.3079C10.2473 16.3079 10.1727 16.3166 10.1765 16.1926C10.204 15.3342 10.1013 14.4702 10.2673 13.6187C10.4133 12.8681 10.7779 12.2816 11.5593 12.0467C11.8111 11.9709 12.0693 11.9947 12.3261 11.9928C12.7165 11.9903 13.1068 11.9928 13.4965 11.9928V11.9934Z" fill="#7785DB"/>
<path id="Vector_7" d="M20.6993 10.9095C21.4957 10.9095 22.292 10.9139 23.0884 10.9057C23.2438 10.9045 23.3089 10.9302 23.3008 11.1056C23.2857 11.4414 23.2995 11.7779 23.2958 12.1144C23.2914 12.4991 23.0658 12.7296 22.6843 12.7303C21.2087 12.7328 19.7332 12.7303 18.2577 12.734C18.133 12.734 18.0822 12.7115 18.0848 12.5711C18.0935 12.0786 18.096 11.5856 18.0841 11.0931C18.0797 10.9245 18.1474 10.9064 18.2878 10.907C19.0916 10.912 19.8961 10.9095 20.7 10.9095H20.6993Z" fill="#7785DB"/>
<path id="Vector_8" d="M12.3606 5.31439C12.3606 4.7198 12.3618 4.15716 12.3606 3.59451C12.3593 2.93726 12.1131 2.69416 11.4502 2.69353C10.7397 2.69353 10.0292 2.68978 9.31929 2.69604C9.17394 2.69729 9.13634 2.67474 9.17143 2.51559C9.40826 1.43104 10.3932 0.662259 11.5047 0.708624C12.5774 0.753109 13.5134 1.63153 13.6431 2.71546C13.7734 3.80629 13.3367 4.77305 12.499 5.24798C12.4665 5.26678 12.4314 5.28119 12.3612 5.31565L12.3606 5.31439Z" fill="#7785DB"/>
<path id="Vector_9" d="M3.31944 16.9425C3.51743 16.8974 3.6396 16.9889 3.76429 17.1299C4.56001 18.0315 5.36387 18.9262 6.16397 19.824C6.21347 19.8798 6.30683 19.9349 6.25796 20.0183C6.21222 20.096 6.12889 20.0252 6.06686 20.0108C4.35951 19.621 2.65404 19.2251 0.945439 18.8385C0.788802 18.8034 0.803839 18.7414 0.853963 18.6355C1.35144 17.5935 2.17849 17.0353 3.31881 16.9419L3.31944 16.9425Z" fill="#7785DB"/>
<path id="Vector_10" d="M20.6712 8.75227C19.8748 8.75227 19.0778 8.74851 18.2815 8.7554C18.1361 8.75665 18.0704 8.72971 18.0848 8.56681C18.1004 8.38824 18.0835 8.20717 18.091 8.02735C18.1036 7.71094 18.3266 7.47285 18.6399 7.4716C20.0064 7.46533 21.3729 7.46596 22.74 7.4716C23.0427 7.47285 23.277 7.70154 23.292 8.00166C23.3039 8.24226 23.3716 8.54175 23.2588 8.70841C23.1604 8.85377 22.839 8.74851 22.6166 8.75039C21.9688 8.75665 21.3203 8.75289 20.6718 8.75289L20.6712 8.75227Z" fill="#7785DB"/>
<path id="Vector_11" d="M17.2827 20.163C17.9613 20.163 18.6398 20.1687 19.3184 20.1593C19.4995 20.1568 19.5233 20.2063 19.4725 20.3717C19.173 21.3497 18.2789 22.0301 17.2771 22.0301C16.2715 22.0301 15.3837 21.356 15.0779 20.3767C15.0184 20.1856 15.0672 20.1568 15.2471 20.1593C15.9256 20.168 16.6042 20.163 17.2827 20.163Z" fill="#7785DB"/>
<path id="Vector_12" d="M3.61329 21.7607C2.38713 21.7582 1.52625 20.9431 1.45607 19.8842C1.44542 19.7194 1.46735 19.6737 1.65156 19.7182C2.78624 19.9901 3.92218 20.2539 5.06187 20.502C5.28993 20.5515 5.25547 20.6267 5.1665 20.7714C4.77178 21.4142 4.1966 21.7382 3.61329 21.7607Z" fill="#7785DB"/>
<path id="Vector_13" d="M20.6925 10.2046C19.8886 10.2046 19.0847 10.2015 18.2815 10.2078C18.1368 10.209 18.0829 10.1821 18.0835 10.0204C18.0866 9.45715 18.0797 9.45715 18.6336 9.45715C20.116 9.45715 21.5991 9.46029 23.0815 9.45277C23.2538 9.45214 23.3052 9.48973 23.302 9.66955C23.292 10.2046 23.3008 10.2046 22.7764 10.2046C22.0821 10.2046 21.3873 10.2046 20.6931 10.2046H20.6925Z" fill="#7785DB"/>
<path id="Vector_14" d="M11.6576 4.48548C11.6576 4.78246 11.6526 5.08007 11.6601 5.37706C11.6632 5.49861 11.6206 5.5362 11.501 5.54497C10.4427 5.62141 9.53359 4.64149 9.68333 3.58826C9.70338 3.44603 9.74348 3.3909 9.89636 3.3934C10.4189 3.40343 10.9421 3.4028 11.4646 3.3934C11.6206 3.3909 11.667 3.43977 11.6607 3.5939C11.6494 3.89088 11.6576 4.18787 11.6576 4.48485V4.48548Z" fill="#7785DB"/>
<path id="Vector_15" d="M9.94086 9.85813C9.75352 9.85813 9.56555 9.85249 9.37821 9.86001C9.2623 9.86502 9.21656 9.83683 9.21218 9.70776C9.19589 9.24349 9.19025 9.22156 9.65139 9.21905C10.0129 9.21717 10.2886 9.09374 10.548 8.84813C10.9108 8.50416 11.3017 8.19025 11.6808 7.86382C11.7936 7.76671 11.9101 7.67648 12.058 7.63701C12.2879 7.57498 12.4759 7.64641 12.6219 7.8231C12.7666 7.9979 12.7735 8.19151 12.6651 8.39075C12.5724 8.5618 12.4283 8.67896 12.2697 8.78234C11.7597 9.11504 11.2478 9.44398 10.7403 9.77919C10.6507 9.83871 10.5618 9.86314 10.4565 9.85938C10.2848 9.85375 10.1125 9.85813 9.94086 9.85813Z" fill="#7785DB"/>
<path id="Vector_16" d="M10.2071 17.8554C9.84059 17.8554 9.47406 17.8517 9.10753 17.8579C8.99287 17.8598 8.96405 17.8366 8.98597 17.7144C9.05991 17.3009 9.32995 17.0371 9.77355 17.0202C10.2955 17.0008 10.8186 17.0158 11.3412 17.0108C11.4439 17.0102 11.4859 17.0472 11.474 17.1474C11.4734 17.1549 11.474 17.1631 11.474 17.1706C11.4696 17.388 11.5454 17.6687 11.4383 17.8065C11.3236 17.9538 11.031 17.8435 10.8161 17.8535C10.6138 17.8629 10.4107 17.8554 10.2077 17.8554H10.2071Z" fill="#7785DB"/>
<path id="Vector_17" d="M5.06002 8.51794C5.65775 8.71656 6.22979 8.90891 6.80371 9.09562C6.89707 9.12632 6.87514 9.16705 6.84569 9.22971C6.77051 9.38697 6.73166 9.55426 6.75108 9.72844C6.76299 9.83495 6.72351 9.86127 6.62327 9.86064C6.14834 9.85688 5.67342 9.85751 5.19912 9.86064C5.10764 9.86064 5.05626 9.84936 5.05752 9.73721C5.06316 9.34123 5.06002 8.94525 5.06002 8.5192V8.51794Z" fill="#7785DB"/>
<path id="Vector_18" d="M8.01981 9.85877C7.9108 9.85877 7.80115 9.85564 7.69213 9.8594C7.57183 9.86379 7.46782 9.84436 7.45279 9.69963C7.43838 9.56179 7.48599 9.44149 7.62321 9.40014C7.88699 9.32119 8.1658 9.35252 8.43647 9.31242C8.5173 9.30052 8.50727 9.3732 8.51291 9.42708C8.54465 9.71488 8.38029 9.85856 8.01981 9.85815V9.85877Z" fill="#7785DB"/>
</g>
<defs>
<clipPath id="clip0_597_995">
<rect width="24" height="22.7337" fill="white"/>
</clipPath>
</defs>
</svg>
